<svg width="86" height="119" viewBox="0 0 86 119" fill="none" xmlns="http://www.w3.org/2000/svg">
<path d="M85.6002 76.29C85.6409 80.1971 85.0741 84.0869 83.9202 87.82C82.8827 91.4485 81.366 94.9224 79.4102 98.15C77.8129 100.816 75.9137 103.289 73.7502 105.52C71.6819 107.627 69.4034 109.517 66.9502 111.16C64.4239 112.885 61.7099 114.318 58.8602 115.43C55.8855 116.57 52.7982 117.392 49.6501 117.88C46.5937 118.312 43.5044 118.466 40.4202 118.34C38.4058 118.253 36.4005 118.019 34.4202 117.64C32.3834 117.282 30.3774 116.768 28.4202 116.1C25.6591 115.145 22.9994 113.919 20.4802 112.44C17.2418 110.518 14.2811 108.163 11.6801 105.44C10.5701 104.29 9.58015 103.04 8.59015 101.79C7.03453 99.8719 5.69323 97.7895 4.59015 95.58C3.31171 93.001 2.28369 90.3053 1.52017 87.53C0.746667 84.6013 0.264323 81.6034 0.0801701 78.58C-0.144767 75.1057 0.104175 71.6171 0.82016 68.21C1.60213 64.3539 2.84785 60.6067 4.53015 57.05C6.50656 53.0321 8.7482 49.1502 11.2402 45.43C12.6602 43.25 14.1002 41.09 15.5402 38.92C16.2302 37.92 16.9801 36.92 17.6201 35.83C18.6201 34.2 19.6202 32.61 20.6702 31.04C21.5718 29.5747 22.5568 28.1624 23.6201 26.81C25.8701 24.17 27.6201 21.19 29.6201 18.39C30.6201 17 31.6202 15.61 32.5502 14.21C34.4302 11.48 36.2802 8.71997 38.2002 6.00997C39.5502 4.09997 40.8002 2.12998 42.3002 0.329976C42.6902 -0.140024 42.9202 -0.100024 43.3002 0.329976C44.5802 1.93998 45.7101 3.64998 46.9001 5.32998C48.0901 7.00998 49.1602 8.58998 50.2902 10.22C53.0002 14.14 55.7301 18.04 58.4301 21.96C59.7801 23.9 61.1001 25.86 62.4301 27.81C64.2601 30.47 66.1002 33.12 67.9102 35.81C69.3302 37.91 70.6801 40.06 72.1201 42.15C73.8401 44.65 75.4701 47.22 77.1201 49.75C77.5801 50.44 78.0002 51.15 78.4402 51.86C78.6402 52.19 78.6402 52.39 78.2002 52.61C75.266 54.0813 72.436 55.7519 69.7302 57.61C66.6442 59.7164 63.6857 62.0038 60.8701 64.46C58.6701 66.37 56.5402 68.36 54.5302 70.46C52.3202 72.78 50.1801 75.17 48.1501 77.66C46.1201 80.15 44.1502 82.61 42.2402 85.19C41.8702 85.7 41.5902 85.45 41.3202 85.11C39.0322 82.2988 36.5778 79.6274 33.9702 77.11C32.4253 75.5967 30.7708 74.1996 29.0202 72.93C27.8578 72.0004 26.568 71.2427 25.1902 70.68C24.082 70.2786 22.8853 70.1876 21.7292 70.4167C20.5731 70.6458 19.5015 71.1863 18.6302 71.98C17.3605 72.933 16.3919 74.2314 15.8401 75.72C15.4469 76.6475 15.396 77.6845 15.6964 78.646C15.9968 79.6076 16.6289 80.4312 17.4802 80.97C20.3886 82.9979 23.1276 85.2587 25.6702 87.73C27.2602 89.31 28.8102 90.94 30.2902 92.64C32.0602 94.69 33.7702 96.78 35.4702 98.89C36.2102 99.8 36.8801 100.78 37.6801 101.65C38.3845 102.567 39.3578 103.241 40.464 103.578C41.5702 103.915 42.754 103.898 43.8502 103.53C44.7939 103.216 45.6226 102.627 46.2302 101.84C47.7202 99.98 48.9602 97.94 50.3202 95.98C51.9202 93.66 53.5001 91.33 55.1801 89.06C56.4101 87.4 57.7201 85.79 58.9001 84.06C59.8279 82.6647 60.9079 81.3768 62.1201 80.22C63.5101 78.93 64.6502 77.38 65.9502 75.99C67.7502 74.08 69.5502 72.16 71.4702 70.36C73.3902 68.56 75.5402 66.59 77.7002 64.85C79.0802 63.73 80.5102 62.69 81.9702 61.7C82.6502 61.23 82.8002 61.27 83.0802 62.07C83.8191 64.1669 84.4138 66.3119 84.8602 68.49C85.4013 71.0536 85.6495 73.6704 85.6002 76.29Z" fill="#6DB8E6"/>
</svg>
