<svg width="110" height="110" viewBox="0 0 110 110" fill="none" xmlns="http://www.w3.org/2000/svg">
<rect width="110" height="110" rx="13" fill="white"/>
<g clip-path="url(#clip0_50_42)">
<path d="M23.49 84.67C16.3299 76.8353 12.3627 66.6036 12.37 55.99C12.3885 44.6923 16.8868 33.863 24.8783 25.8771C32.8698 17.8912 43.7023 13.4006 55 13.39C66.296 13.4032 77.1259 17.895 85.1152 25.8806C93.1046 33.8662 97.6015 44.694 97.62 55.99C97.627 66.2235 93.9413 76.1159 87.24 83.85C89.4002 84.4867 91.5206 85.2514 93.59 86.14C100.337 77.5392 104 66.9214 103.99 55.99C103.99 42.9944 98.8275 30.531 89.6382 21.3418C80.449 12.1525 67.9856 6.98999 54.99 6.98999C41.9985 7.00323 29.5428 12.17 20.3564 21.3564C11.17 30.5428 6.00324 42.9984 5.99 55.99C5.98176 67.4209 9.98819 78.4917 17.31 87.27C19.3008 86.2546 21.3629 85.3856 23.48 84.67" fill="#153D8A"/>
<path d="M77.56 69.14C76.63 68.6 75.73 68.05 74.87 67.52C73.1422 66.3952 71.3378 65.3927 69.47 64.52C65.79 62.94 61.94 61.52 58.21 60.22L55.7 59.31C51.58 57.82 47.6 56.31 44.18 53.62C42.7677 52.5397 41.5065 51.2751 40.43 49.86L30 74.39H40.7L45.06 63.7H65.24L69.6 74.39H80.6L78.6 69.76L77.56 69.14Z" fill="#153D8A"/>
<path d="M45.33 45.7L46.95 46.37L51.14 36.14L56.89 50.14C61.3122 51.7246 65.444 54.0253 69.12 56.95C69.8241 57.5498 70.492 58.1909 71.12 58.87L56.12 23.51H46.44L39 40.99C40.6593 43.0891 42.8427 44.7137 45.33 45.7Z" fill="#153D8A"/>
<path d="M74.2891 66.7701C71.6386 65.061 68.8943 63.5019 66.0691 62.1001C61.5491 60.1001 56.8791 58.5401 52.2391 56.8601C48.2991 55.4301 44.3891 53.9301 41.0291 51.3401C36.5991 47.9201 33.8091 43.0301 35.4991 37.4301C35.5891 37.4901 35.7191 37.5401 35.7291 37.6101C36.8491 42.8701 40.2791 46.1901 45.0191 48.2201C48.7191 49.8101 52.5391 51.1401 56.3091 52.5801C60.7161 54.1465 64.8372 56.4232 68.5091 59.3201C70.9578 61.348 72.9281 63.892 74.2791 66.7701" fill="#31B7BC"/>
<path d="M89.9881 92.39C88.5181 91.48 87.1281 90.55 85.6681 89.74C81.4181 87.41 77.0081 87.62 72.6681 89.44C68.8881 91.05 65.2281 92.96 61.5581 94.83C56.0981 97.62 50.6281 100.39 44.5581 101.72C38.2481 103.12 32.1981 102.72 26.7581 98.83C23.0445 96.1063 20.323 92.2435 19.0081 87.83C18.9973 87.6835 18.9973 87.5364 19.0081 87.39C20.3481 88.39 21.5981 89.39 22.8681 90.33C25.2058 92.1924 27.9017 93.5539 30.7881 94.33C34.4289 95.1615 38.2381 94.8399 41.6881 93.41C46.4981 91.52 51.1981 89.35 55.9181 87.23C60.3259 85.0644 64.9657 83.4071 69.7481 82.29C74.6081 81.29 79.3481 81.41 83.7481 84.18C86.6014 86.0225 88.764 88.7583 89.8981 91.96C89.9389 92.1203 89.9624 92.2846 89.9681 92.45" fill="#153D8A"/>
<path d="M57.3599 82.7C55.4438 83.12 53.5512 83.6407 51.6899 84.26C48.8499 85.39 46.0899 86.74 43.3099 88.04C41.0051 89.251 38.5252 90.0945 35.9599 90.54C32.5099 90.98 29.1399 90.06 27.4199 86.86C27.4799 86.86 27.5599 86.86 27.5999 86.86C28.8868 87.693 30.3651 88.1835 31.8946 88.285C33.4242 88.3865 34.9543 88.0956 36.3399 87.44C38.6699 86.51 40.9299 85.44 43.2199 84.44C45.8465 83.1894 48.6606 82.3786 51.5499 82.04C53.5167 81.855 55.5001 82.1042 57.3599 82.77" fill="#A1DAF8"/>
<path d="M70.2 97.49C66.61 94.83 62.83 95.49 59.11 96.61C55.39 97.73 51.83 99.31 48.11 100.47C45.65 101.25 43.11 101.66 40.55 102.23C40.367 102.247 40.1829 102.247 40 102.23C40.29 102.04 40.42 101.93 40.57 101.85C44.73 99.7 48.86 97.52 53.04 95.44C56.1686 93.7753 59.6663 92.9258 63.21 92.97C65.74 93.04 68.04 93.75 69.49 96.07C69.7501 96.5453 69.9806 97.0362 70.18 97.54" fill="#31B7BC"/>
</g>
<defs>
<clipPath id="clip0_50_42">
<rect width="97.98" height="95.48" fill="white" transform="translate(6 7)"/>
</clipPath>
</defs>
</svg>
