<svg width="231" height="69" viewBox="0 0 231 69" fill="none" xmlns="http://www.w3.org/2000/svg">
<path d="M118.308 24.5818C118.409 24.8179 118.494 25.0541 118.573 25.2973C118.8 26.0491 118.913 26.8305 118.909 27.6158V39.8805H115.499V34.0272C115.048 34.3261 114.569 34.5801 114.069 34.7857C113.008 35.227 111.871 35.4555 110.723 35.4583C109.577 35.4714 108.441 35.2599 107.377 34.8358C106.417 34.4486 105.541 33.8801 104.796 33.1614C104.078 32.4541 103.509 31.6098 103.123 30.6784C102.723 29.7174 102.521 28.6854 102.529 27.6444C102.524 26.603 102.728 25.5711 103.13 24.6104C103.52 23.6857 104.089 22.8469 104.803 22.1417C105.543 21.4198 106.417 20.8508 107.377 20.4673C108.428 20.0438 109.553 19.8323 110.687 19.8448C111.841 19.8297 112.987 20.0387 114.062 20.4601C115.03 20.8358 115.912 21.4028 116.657 22.1274C117.378 22.8337 117.949 23.6781 118.337 24.6104M115.592 27.6515C115.592 27.3522 115.57 27.0533 115.527 26.7571C115.472 26.3496 115.367 25.9506 115.213 25.5693C114.983 24.9676 114.635 24.4179 114.19 23.9521C113.756 23.4967 113.233 23.1361 112.653 22.8931C112.051 22.6422 111.404 22.5156 110.751 22.521C110.104 22.5191 109.462 22.6455 108.864 22.8931C108.28 23.1358 107.751 23.4963 107.312 23.9521C106.862 24.4227 106.507 24.9769 106.269 25.5836C106.013 26.2426 105.887 26.9447 105.897 27.6515C105.891 28.3557 106.017 29.0546 106.269 29.7124C106.507 30.3108 106.859 30.8575 107.305 31.3224C107.742 31.778 108.267 32.1385 108.85 32.3814C109.448 32.6295 110.089 32.756 110.737 32.7535C111.387 32.756 112.031 32.6295 112.632 32.3814C113.217 32.1405 113.745 31.7798 114.183 31.3224C114.628 30.8583 114.978 30.3113 115.213 29.7124C115.362 29.3322 115.468 28.936 115.527 28.5317C115.57 28.2403 115.592 27.9461 115.592 27.6515Z" fill="#153D8A"/>
<path d="M122.741 20.3385H126.152V28.1238C126.155 29.2215 126.593 30.2731 127.368 31.0493C128.144 31.8255 129.194 32.2632 130.291 32.2669C131.388 32.2632 132.439 31.8255 133.214 31.0493C133.99 30.2731 134.427 29.2215 134.431 28.1238V20.3385H137.841V27.8877C137.837 29.8907 137.042 31.8109 135.629 33.2292C134.216 34.6476 132.3 35.4489 130.298 35.4584C128.296 35.4508 126.379 34.6515 124.963 33.2347C123.547 31.8179 122.749 29.8985 122.741 27.8949V20.3385Z" fill="#153D8A"/>
<path d="M142.267 24.5961C142.655 23.6643 143.226 22.82 143.947 22.1131C144.689 21.3912 145.566 20.8223 146.528 20.4387C147.589 20.0151 148.724 19.8036 149.867 19.8161C151.012 19.803 152.149 20.0145 153.213 20.4387C153.713 20.6442 154.192 20.8983 154.643 21.1972C155.051 21.4639 155.432 21.7707 155.779 22.1131C156.496 22.8233 157.066 23.6667 157.459 24.5961C157.859 25.5573 158.061 26.5891 158.053 27.6301V34.9288H154.643V34.063C154.18 34.3636 153.689 34.6177 153.177 34.8215C152.103 35.2372 150.96 35.4436 149.809 35.4297C148.676 35.4432 147.551 35.2316 146.499 34.8072C145.538 34.4266 144.661 33.8601 143.918 33.1399C143.202 32.4349 142.636 31.5929 142.252 30.6641C141.85 29.7036 141.646 28.6716 141.652 27.6301C141.645 26.5899 141.844 25.5587 142.238 24.5961M154.335 29.7338C154.483 29.3512 154.587 28.9526 154.643 28.546C154.686 28.2498 154.707 27.9509 154.707 27.6515C154.707 27.357 154.686 27.0628 154.643 26.7714C154.587 26.3685 154.482 25.9742 154.328 25.5979C154.098 24.9962 153.75 24.4465 153.306 23.9807C152.865 23.5271 152.337 23.1669 151.754 22.9217C151.15 22.6758 150.504 22.5518 149.852 22.5567C149.208 22.5518 148.568 22.6759 147.972 22.9217C147.387 23.1626 146.858 23.5233 146.421 23.9807C145.972 24.445 145.622 24.995 145.391 25.5979C145.136 26.252 145.01 26.9494 145.019 27.6515C145.01 28.3606 145.136 29.0649 145.391 29.7267C145.624 30.3326 145.976 30.8851 146.428 31.351C146.869 31.807 147.4 32.1674 147.986 32.41C148.582 32.6581 149.221 32.7846 149.867 32.7821C150.519 32.7889 151.166 32.6623 151.768 32.41C152.351 32.1671 152.876 31.8066 153.313 31.351C153.753 30.8815 154.1 30.3328 154.335 29.7338Z" fill="#153D8A"/>
<path d="M176.892 34.7428C175.544 35.2837 174.104 35.556 172.652 35.5442C171.688 35.5499 170.726 35.4296 169.792 35.1864C168.896 34.9522 168.033 34.6035 167.226 34.1488C166.447 33.7032 165.726 33.1624 165.081 32.5388C164.439 31.9217 163.879 31.2243 163.415 30.4637C162.944 29.6955 162.579 28.8676 162.328 28.0022C162.076 27.1155 161.951 26.1976 161.956 25.2759C161.951 24.3517 162.076 23.4314 162.328 22.5424C162.579 21.677 162.944 20.8491 163.415 20.0809C163.879 19.3203 164.439 18.6228 165.081 18.0057C165.728 17.3844 166.448 16.8438 167.226 16.3957C168.033 15.9411 168.896 15.5923 169.792 15.3581C170.727 15.1187 171.688 14.9985 172.652 15.0004C174.104 14.9886 175.544 15.2608 176.892 15.8018C177.983 16.2448 178.993 16.8663 179.88 17.6408L177.736 19.8447C177.194 19.3114 176.571 18.8671 175.891 18.5281C174.893 18.0383 173.792 17.793 172.681 17.8125C171.698 17.7996 170.723 17.9947 169.821 18.385C168.954 18.7536 168.167 19.2884 167.505 19.9592C166.839 20.6422 166.31 21.4461 165.946 22.3277C165.563 23.2678 165.371 24.2749 165.381 25.2902C165.375 26.3004 165.567 27.3021 165.946 28.2383C166.31 29.1199 166.839 29.9238 167.505 30.6068C168.167 31.2798 168.953 31.817 169.821 32.1882C170.724 32.575 171.698 32.77 172.681 32.7607C173.792 32.7799 174.893 32.5346 175.891 32.0451C176.571 31.7087 177.194 31.2667 177.736 30.7356L179.88 32.9324C178.993 33.7069 177.983 34.3284 176.892 34.7714" fill="#153D8A"/>
<path d="M184.321 24.596C184.704 23.6632 185.273 22.8184 185.994 22.113C186.735 21.3886 187.612 20.8172 188.575 20.4314C189.636 20.0078 190.771 19.7964 191.913 19.8089C193.061 19.7963 194.2 20.0078 195.267 20.4314C195.766 20.6386 196.245 20.8926 196.696 21.1899C197.101 21.4585 197.48 21.7652 197.826 22.1058C198.545 22.8141 199.116 23.6581 199.506 24.5888C199.908 25.5496 200.112 26.5814 200.107 27.6228V34.9216H196.696V34.0557C196.232 34.3564 195.738 34.6105 195.224 34.8142C194.15 35.2305 193.007 35.4369 191.856 35.4225C190.723 35.435 189.598 35.2234 188.546 34.7999C187.587 34.4186 186.712 33.852 185.972 33.1327C185.278 32.4244 184.731 31.5853 184.363 30.664C183.961 29.7035 183.757 28.6715 183.763 27.63C183.755 26.589 183.957 25.5572 184.356 24.596M196.411 29.7337C196.558 29.3502 196.663 28.952 196.725 28.5459C196.766 28.2495 196.785 27.9506 196.782 27.6515C196.785 27.3571 196.766 27.0629 196.725 26.7713C196.663 26.3698 196.558 25.9763 196.411 25.5978C196.175 24.9974 195.825 24.4483 195.381 23.9806C194.94 23.527 194.412 23.1668 193.83 22.9216C193.228 22.6758 192.584 22.5517 191.935 22.5566C191.288 22.551 190.646 22.675 190.047 22.9216C189.465 23.1645 188.94 23.525 188.503 23.9806C188.05 24.4426 187.697 24.9931 187.466 25.5978C187.211 26.2519 187.085 26.9493 187.095 27.6515C187.086 28.3605 187.212 29.0648 187.466 29.7266C187.702 30.3311 188.054 30.8831 188.503 31.3509C188.955 31.7975 189.492 32.1479 190.083 32.3813C190.681 32.6294 191.323 32.7559 191.971 32.7534C192.621 32.7594 193.265 32.6328 193.865 32.3813C194.448 32.1403 194.974 31.7795 195.41 31.3223C195.843 30.8631 196.183 30.3235 196.411 29.7337Z" fill="#153D8A"/>
<path d="M203.968 28.9538V24.9753C203.98 23.7844 204.404 22.6345 205.168 21.7213C205.932 20.8081 206.988 20.1879 208.157 19.9664C208.464 19.9091 208.775 19.8804 209.087 19.8805H210.745V22.5424H209.816C209.171 22.5424 208.551 22.7985 208.094 23.2545C207.637 23.7106 207.38 24.3294 207.378 24.9753V34.9932H203.968V28.9538Z" fill="#153D8A"/>
<path d="M219.432 20.4315C220.496 20.0073 221.633 19.7958 222.778 19.8089C223.923 19.7964 225.06 20.0079 226.124 20.4315C227.082 20.8179 227.954 21.3893 228.691 22.113C229.409 22.8213 229.981 23.6653 230.371 24.596C230.601 25.14 230.767 25.7092 230.864 26.2919C230.936 26.7344 230.972 27.1818 230.972 27.63C230.972 28.0735 230.936 28.5162 230.864 28.9538H218.095C218.155 29.1972 218.232 29.4363 218.324 29.6694C218.567 30.2869 218.932 30.8491 219.396 31.3223C219.835 31.7781 220.364 32.1386 220.948 32.3814C221.546 32.6289 222.188 32.7554 222.835 32.7535C223.488 32.7588 224.135 32.6322 224.737 32.3814C225.11 32.2252 225.461 32.0207 225.781 31.7731C225.944 31.6445 226.099 31.5059 226.246 31.3581H230.092C229.734 32.0192 229.279 32.6223 228.741 33.147C228.469 33.4104 228.175 33.6498 227.861 33.8626C227.327 34.2402 226.752 34.5547 226.146 34.8C225.07 35.2157 223.924 35.4222 222.771 35.4082C221.637 35.4207 220.512 35.2091 219.461 34.7857C218.503 34.4026 217.628 33.8363 216.887 33.1184C216.169 32.4138 215.6 31.5718 215.214 30.6426C214.986 30.0928 214.82 29.5191 214.721 28.9324C214.649 28.4947 214.613 28.052 214.613 27.6086C214.613 27.1604 214.649 26.7129 214.721 26.2705C214.815 25.688 214.979 25.1188 215.207 24.5746C215.593 23.6432 216.162 22.7989 216.88 22.0916C217.616 21.3795 218.483 20.8159 219.432 20.4315ZM218.095 26.2848H227.497C227.438 26.0411 227.361 25.802 227.268 25.5692C227.032 24.9688 226.683 24.4197 226.238 23.952C225.798 23.4984 225.27 23.1382 224.687 22.893C224.086 22.6472 223.442 22.5231 222.792 22.5281C222.145 22.5231 221.504 22.6472 220.905 22.893C220.336 23.1402 219.822 23.5004 219.396 23.952C218.946 24.4159 218.593 24.9659 218.36 25.5692C218.267 25.802 218.19 26.0411 218.131 26.2848" fill="#153D8A"/>
<path d="M105.16 51.1149C105.421 51.3578 105.756 51.5043 106.111 51.5299H106.197C106.625 51.5303 107.037 51.3723 107.355 51.0862C107.518 50.9538 107.65 50.7871 107.742 50.5979C107.833 50.4087 107.882 50.2016 107.884 49.9914C107.891 49.9033 107.891 49.8148 107.884 49.7267C107.869 49.6347 107.847 49.5439 107.82 49.4547L107.756 49.283C107.731 49.226 107.703 49.171 107.67 49.1184C107.542 48.9208 107.358 48.7662 107.141 48.6748C106.89 48.563 106.632 48.4674 106.369 48.3886L106.133 48.317C106.054 48.317 105.983 48.2741 105.904 48.2526C105.432 48.0909 104.992 47.8488 104.603 47.537C104.383 47.3243 104.216 47.0639 104.113 46.7761C104.01 46.4883 103.975 46.1806 104.009 45.8769C103.994 45.5968 104.052 45.3176 104.177 45.0667C104.303 44.8158 104.491 44.6018 104.724 44.4458C105.182 44.1223 105.729 43.9497 106.29 43.9521C106.772 43.9412 107.243 44.1008 107.62 44.4029C107.961 44.6592 108.234 44.9959 108.413 45.3832C108.455 45.4852 108.489 45.5905 108.513 45.698C108.541 45.7983 108.556 45.9017 108.556 46.0057V46.1059H107.77C107.702 45.7152 107.515 45.3552 107.234 45.0755C107.012 44.8568 106.731 44.7076 106.426 44.6462H106.297H106.168C105.83 44.6478 105.503 44.7695 105.246 44.9896C105.111 45.0955 105.001 45.23 104.925 45.3834C104.848 45.5369 104.807 45.7054 104.803 45.8769C104.775 46.0956 104.809 46.3177 104.9 46.5185C104.991 46.7193 105.135 46.891 105.318 47.0147C105.661 47.2661 106.036 47.4707 106.433 47.6229L106.605 47.673L106.783 47.7231C107.205 47.8483 107.609 48.0288 107.984 48.2598C108.189 48.3994 108.363 48.5793 108.496 48.7885C108.628 48.9976 108.717 49.2316 108.757 49.4762C108.753 49.5023 108.753 49.5288 108.757 49.5549C108.757 49.5549 108.757 49.5979 108.757 49.6265C108.757 49.6265 108.757 49.7195 108.757 49.7624C108.76 49.8005 108.76 49.8388 108.757 49.8769C108.764 49.9698 108.764 50.0631 108.757 50.156C108.746 50.2548 108.73 50.3528 108.706 50.4494C108.554 50.953 108.267 51.4056 107.877 51.7589C107.456 52.1634 106.895 52.3912 106.311 52.3957C105.669 52.4019 105.048 52.1641 104.574 51.7302C104.056 51.2548 103.739 50.5997 103.688 49.8984H104.56C104.602 50.3506 104.802 50.7736 105.125 51.0934" fill="#31B7BC"/>
<path d="M119.967 44.0665H124.5V44.8322H120.746V47.7302H124.414V48.503H120.746V51.4726H124.5V52.2526H119.967V44.0665Z" fill="#31B7BC"/>
<path d="M136.254 44.045H138.27C139.607 44.045 140.537 44.3098 141.051 44.825C141.529 45.2604 141.814 45.8678 141.845 46.5137V46.7499C141.83 47.4276 141.55 48.0724 141.066 48.5459C140.568 48.9371 139.945 49.133 139.314 49.0969L141.673 52.2311H140.701L137.898 48.4815C138.714 48.5398 139.532 48.4252 140.301 48.1452C140.541 48.0057 140.739 47.8036 140.874 47.5604C141.008 47.3173 141.075 47.0421 141.066 46.7642V46.5137C141.08 46.2335 141.012 45.9552 140.869 45.7135C140.727 45.4718 140.517 45.2773 140.265 45.1542C139.7 44.8681 139.074 44.7256 138.442 44.7391H137.012V52.2311H136.225L136.254 44.045Z" fill="#31B7BC"/>
<path d="M152.462 44.0665H153.334L156.208 51.2078L159.183 44.0665H160.048L156.644 52.2526H155.865L152.462 44.0665Z" fill="#31B7BC"/>
<path d="M172.023 44.0665H171.151V52.2597H172.023V44.0665Z" fill="#31B7BC"/>
<path d="M183.648 47.5585C183.81 46.5062 184.361 45.5533 185.193 44.8894C185.932 44.2808 186.852 43.9337 187.809 43.902H188.067H188.217C188.907 43.9542 189.574 44.1727 190.162 44.5388C190.816 44.9425 191.344 45.5229 191.684 46.2132H190.712C190.457 45.7261 190.06 45.3271 189.575 45.0683C189.135 44.8304 188.646 44.6958 188.145 44.6748H187.824C186.982 44.7443 186.187 45.0916 185.564 45.6623C185.226 45.9632 184.959 46.3357 184.782 46.7528C184.605 47.1698 184.523 47.621 184.542 48.0737C184.51 48.5624 184.586 49.0521 184.764 49.5083C184.942 49.9645 185.217 50.3761 185.572 50.7141C186.173 51.2275 186.927 51.5269 187.716 51.5657H187.938H188.06C188.615 51.5326 189.159 51.3917 189.661 51.1506C190.123 50.9461 190.52 50.6165 190.805 50.1989H191.77C191.406 50.827 190.889 51.3535 190.269 51.7302C189.699 52.0674 189.062 52.275 188.403 52.3385H188.174H187.938C186.841 52.3387 185.781 51.9393 184.957 51.215C184.51 50.8391 184.156 50.3655 183.922 49.8307C183.687 49.2959 183.579 48.7143 183.605 48.131C183.602 48.0833 183.602 48.0355 183.605 47.9878C183.601 47.9402 183.601 47.8923 183.605 47.8447C183.609 47.7971 183.609 47.7492 183.605 47.7016C183.609 47.6564 183.609 47.6109 183.605 47.5657L183.648 47.5585Z" fill="#31B7BC"/>
<path d="M203.181 44.0665H207.714V44.8322H203.968V47.7302H207.628V48.503H203.968V51.4726H207.714V52.2526H203.181V44.0665Z" fill="#31B7BC"/>
<path d="M87.1291 15.4727H90.6038L98.6971 35.0648H94.9293L93.5637 31.7374H84.1119L82.775 35.0648H79L87.1291 15.4727ZM88.8664 19.9306L85.2487 28.961H92.4841L88.8664 19.9306Z" fill="#153D8A"/>
<path d="M12.5118 55.585C7.39257 49.9788 4.55625 42.6574 4.56143 35.0626C4.57468 26.9784 7.79076 19.2294 13.5044 13.5149C19.218 7.80051 26.9627 4.58717 35.0401 4.57961C43.1162 4.58907 50.8591 7.80324 56.5712 13.5175C62.2832 19.2317 65.4983 26.9796 65.5116 35.0626C65.5166 42.3853 62.8815 49.464 58.0903 54.9982C59.6348 55.4538 61.1508 56.001 62.6303 56.6369C67.4541 50.4824 70.0727 42.8847 70.0659 35.0626C70.0659 25.7634 66.3749 16.8451 59.805 10.2696C53.235 3.69409 44.3242 0 35.0329 0C25.7445 0.00947151 16.8393 3.7066 10.2714 10.2801C3.70346 16.8535 0.00947257 25.7663 9.08644e-06 35.0626C-0.00588775 43.2422 2.85854 51.164 8.09332 57.4454C9.51665 56.7189 10.991 56.0971 12.5046 55.585" fill="#153D8A"/>
<path d="M50.9621 44.4722C50.2972 44.0858 49.6538 43.6922 49.0389 43.313C47.8036 42.5081 46.5135 41.7908 45.1781 41.1663C42.5471 40.0357 39.7945 39.0196 37.1277 38.0894L35.3331 37.4382C32.3875 36.372 29.542 35.2915 27.0968 33.3667C26.0871 32.5937 25.1854 31.6888 24.4157 30.6761L16.9587 48.2289H24.6088L27.726 40.5795H42.1538L45.2711 48.2289H53.1356L51.7057 44.9159L50.9621 44.4722Z" fill="#153D8A"/>
<path d="M30.8074 27.6995L31.9656 28.1789L34.9613 20.8587L39.0723 30.8766C42.234 32.0105 45.1881 33.6568 47.8163 35.7496C48.3197 36.1788 48.7972 36.6376 49.2462 37.1235L38.5218 11.8212H31.601L26.2817 24.3292C27.4681 25.8313 29.0291 26.9938 30.8074 27.6995Z" fill="#153D8A"/>
<path d="M51.384 42.7764C49.489 41.5534 47.5269 40.4378 45.5071 39.4347C42.2755 38.0036 38.9366 36.8873 35.6192 35.6851C32.8023 34.6619 30.0068 33.5885 27.6045 31.7352C24.4373 29.288 22.4425 25.7889 23.6508 21.7817C23.7152 21.8247 23.8081 21.8604 23.8153 21.9105C24.616 25.6744 27.0683 28.0501 30.4572 29.5027C33.1025 30.6404 35.8337 31.5921 38.5291 32.6225C41.6799 33.7434 44.6263 35.3726 47.2516 37.4454C49.0022 38.8966 50.4109 40.7169 51.3769 42.7764" fill="#31B7BC"/>
<path d="M61.1788 61.1091C60.1278 60.458 59.134 59.7925 58.0901 59.2129C55.0516 57.5456 51.8986 57.6959 48.7957 58.9982C46.0932 60.1503 43.4764 61.517 40.8525 62.8551C36.9488 64.8515 33.038 66.8336 28.6982 67.7853C24.1869 68.7871 19.8614 68.5009 15.972 65.7174C13.317 63.7684 11.3712 61.0043 10.4311 57.8462C10.4234 57.7414 10.4234 57.6361 10.4311 57.5313C11.3891 58.2469 12.2828 58.9624 13.1908 59.6351C14.8622 60.9677 16.7896 61.942 18.8533 62.4973C21.4563 63.0923 24.1798 62.8622 26.6463 61.839C30.0852 60.4866 33.4456 58.9338 36.8202 57.4168C39.9716 55.8672 43.2888 54.6813 46.708 53.8819C50.1827 53.1664 53.5716 53.2522 56.7174 55.2344C58.7574 56.5528 60.3036 58.5105 61.1144 60.8014C61.1436 60.9162 61.1604 61.0337 61.1645 61.1521" fill="#153D8A"/>
<path d="M36.7274 54.1753C35.3574 54.4758 34.0043 54.8485 32.6736 55.2916C30.6431 56.1002 28.6698 57.0662 26.6822 57.9965C25.0343 58.863 23.2613 59.4666 21.4273 59.7854C18.9607 60.1002 16.5513 59.4419 15.3215 57.1521C15.3644 57.1521 15.4216 57.1521 15.4502 57.1521C16.3703 57.7481 17.4272 58.0991 18.5207 58.1718C19.6143 58.2444 20.7083 58.0363 21.699 57.5671C23.3648 56.9016 24.9806 56.136 26.6179 55.4204C28.4957 54.5255 30.5077 53.9454 32.5735 53.7031C33.9796 53.5707 35.3976 53.749 36.7274 54.2254" fill="#A1DAF8"/>
<path d="M59.7775 64.7585C57.2108 62.8551 54.5083 63.3273 51.8486 64.1288C49.189 64.9302 46.6437 66.0608 43.9841 66.8909C42.2253 67.449 40.4093 67.7424 38.579 68.1502C38.4482 68.1623 38.3166 68.1623 38.1858 68.1502C38.3931 68.0143 38.4861 67.9356 38.5933 67.8783C41.5675 66.3399 44.5203 64.7799 47.5088 63.2916C49.7457 62.1003 52.2464 61.4925 54.78 61.5241C56.5888 61.5742 58.2332 62.0823 59.2699 63.7424C59.4559 64.0825 59.6206 64.4338 59.7632 64.7942" fill="#31B7BC"/>
</svg>
