<svg width="152" height="116" viewBox="0 0 152 116" fill="none" xmlns="http://www.w3.org/2000/svg">
<g clip-path="url(#clip0_50_5)">
<path d="M8.13615 79.0411H11.6108L19.7042 98.6333H15.9363L14.5708 95.3059H5.11902L3.78206 98.6333H0.00708008L8.13615 79.0411ZM9.87349 83.4991L6.2558 92.5295H13.4912L9.87349 83.4991Z" fill="#153D8A"/>
<path d="M39.3155 88.1503C39.4156 88.3864 39.5014 88.6225 39.58 88.8658C39.807 89.6175 39.9202 90.399 39.9161 91.1843V103.449H36.5057V97.5957C36.0549 97.8946 35.576 98.1486 35.0758 98.3542C34.0152 98.7955 32.8784 99.024 31.7298 99.0268C30.5846 99.0399 29.4479 98.8284 28.3838 98.4043C27.4241 98.017 26.5479 97.4486 25.8028 96.7299C25.0848 96.0226 24.5159 95.1782 24.1298 94.2469C23.7297 93.2859 23.5278 92.2539 23.5364 91.2129C23.5311 90.1715 23.7353 89.1396 24.137 88.1789C24.5275 87.2542 25.096 86.4154 25.81 85.7102C26.5497 84.9883 27.4243 84.4193 28.3838 84.0358C29.4356 83.6123 30.5605 83.4007 31.6941 83.4132C32.8481 83.3982 33.9941 83.6072 35.0687 84.0286C36.0369 84.4042 36.9196 84.9713 37.664 85.6959C38.385 86.4021 38.9565 87.2466 39.3441 88.1789M36.5987 91.22C36.5988 90.9207 36.5773 90.6218 36.5343 90.3256C36.4793 89.9181 36.3736 89.519 36.2197 89.1377C35.9896 88.5361 35.6421 87.9863 35.1974 87.5206C34.7635 87.0651 34.2401 86.7046 33.6602 86.4615C33.0578 86.2107 32.4109 86.0841 31.7584 86.0894C31.1109 86.0876 30.4694 86.214 29.8709 86.4615C29.2867 86.7043 28.7586 87.0648 28.3195 87.5206C27.8688 87.9912 27.5142 88.5454 27.2756 89.1521C27.0203 89.8111 26.8941 90.5132 26.9039 91.22C26.8983 91.9242 27.0244 92.6231 27.2756 93.2809C27.5145 93.8793 27.8665 94.4259 28.3123 94.8909C28.7488 95.3465 29.2745 95.707 29.8566 95.9499C30.4549 96.198 31.0965 96.3245 31.7441 96.322C32.394 96.3245 33.038 96.198 33.6388 95.9499C34.224 95.709 34.7525 95.3482 35.1902 94.8909C35.6353 94.4268 35.9851 93.8798 36.2197 93.2809C36.3694 92.9006 36.475 92.5045 36.5343 92.1002C36.5774 91.8088 36.5989 91.5146 36.5987 91.22Z" fill="#153D8A"/>
<path d="M43.7483 83.907H47.1586V91.6923C47.1624 92.79 47.5998 93.8416 48.3753 94.6178C49.1508 95.3939 50.2015 95.8317 51.2982 95.8354C52.395 95.8317 53.4457 95.3939 54.2212 94.6178C54.9967 93.8416 55.4341 92.79 55.4379 91.6923V83.907H58.8482V91.4562C58.8444 93.4592 58.0492 95.3794 56.6361 96.7977C55.223 98.2161 53.3067 99.0174 51.3054 99.0268C49.3034 99.0193 47.3856 98.22 45.97 96.8032C44.5544 95.3864 43.7558 93.467 43.7483 91.4633V83.907Z" fill="#153D8A"/>
<path d="M63.2737 88.1646C63.6622 87.2328 64.2336 86.3885 64.9539 85.6816C65.6964 84.9597 66.5733 84.3908 67.5349 84.0071C68.5966 83.5836 69.7309 83.3721 70.8737 83.3846C72.019 83.3715 73.1557 83.583 74.2197 84.0071C74.7199 84.2127 75.1988 84.4668 75.6496 84.7656C76.0581 85.0323 76.4389 85.3392 76.7864 85.6816C77.5028 86.3917 78.0736 87.2352 78.4666 88.1646C78.866 89.1257 79.0678 90.1576 79.06 91.1986V98.4973H75.6496V97.6315C75.1873 97.9321 74.6963 98.1861 74.184 98.39C73.1105 98.8057 71.9675 99.0121 70.8165 98.9982C69.6829 99.0116 68.5578 98.8 67.5063 98.3757C66.5448 97.9951 65.6677 97.4286 64.9253 96.7084C64.2095 96.0034 63.643 95.1614 63.2594 94.2325C62.857 93.2721 62.6527 92.2401 62.6589 91.1986C62.6521 90.1584 62.8513 89.1272 63.2451 88.1646M75.3422 93.3023C75.4905 92.9197 75.5937 92.521 75.6496 92.1145C75.6926 91.8183 75.7142 91.5193 75.714 91.22C75.7142 90.9255 75.6927 90.6313 75.6496 90.3399C75.5946 89.937 75.4889 89.5427 75.3351 89.1664C75.1049 88.5647 74.7574 88.015 74.3127 87.5492C73.8718 87.0956 73.3441 86.7354 72.7612 86.4902C72.1575 86.2443 71.5112 86.1203 70.8594 86.1252C70.2146 86.1203 69.5753 86.2444 68.9791 86.4902C68.3938 86.7311 67.8654 87.0918 67.4276 87.5492C66.9793 88.0135 66.6291 88.5635 66.3981 89.1664C66.1429 89.8205 66.0166 90.5179 66.0263 91.22C66.0172 91.9291 66.1434 92.6334 66.3981 93.2952C66.6306 93.9011 66.9832 94.4536 67.4348 94.9195C67.8765 95.3755 68.407 95.7359 68.9934 95.9785C69.5892 96.2266 70.2284 96.3531 70.8737 96.3506C71.5263 96.3574 72.1735 96.2307 72.7755 95.9785C73.3576 95.7356 73.8833 95.3751 74.3198 94.9195C74.7598 94.45 75.1067 93.9012 75.3422 93.3023Z" fill="#153D8A"/>
<path d="M97.899 98.3112C96.5515 98.8522 95.1112 99.1245 93.6593 99.1127C92.6946 99.1184 91.7332 98.9981 90.7995 98.7549C89.903 98.5207 89.0403 98.172 88.2328 97.7173C87.454 97.2717 86.7335 96.7309 86.0879 96.1073C85.4458 95.4902 84.8858 94.7927 84.4221 94.0322C83.9516 93.2639 83.5861 92.4361 83.3353 91.5706C83.0833 90.684 82.9582 89.7661 82.9636 88.8443C82.9577 87.9202 83.0828 86.9998 83.3353 86.1109C83.5861 85.2455 83.9516 84.4176 84.4221 83.6493C84.8858 82.8888 85.4458 82.1913 86.0879 81.5742C86.7353 80.9529 87.4555 80.4122 88.2328 79.9642C89.0403 79.5095 89.903 79.1608 90.7995 78.9266C91.7339 78.6872 92.6948 78.567 93.6593 78.5688C95.1112 78.5571 96.5515 78.8293 97.899 79.3703C98.9902 79.8133 100 80.4348 100.888 81.2093L98.7427 83.4132C98.2009 82.8799 97.5784 82.4356 96.8981 82.0966C95.8998 81.6068 94.7995 81.3615 93.6879 81.381C92.705 81.3681 91.7305 81.5632 90.8281 81.9535C89.9608 82.3221 89.1739 82.8569 88.5116 83.5277C87.8462 84.2107 87.3172 85.0146 86.953 85.8962C86.5697 86.8362 86.3776 87.8434 86.3882 88.8586C86.3818 89.8689 86.5737 90.8706 86.953 91.8068C87.3172 92.6884 87.8462 93.4923 88.5116 94.1753C89.1736 94.8483 89.9605 95.3855 90.8281 95.7567C91.7315 96.1435 92.7054 96.3385 93.6879 96.3291C94.7995 96.3484 95.8997 96.1031 96.8981 95.6136C97.5781 95.2772 98.2007 94.8352 98.7427 94.3041L100.888 96.5009C100 97.2754 98.9902 97.8968 97.899 98.3399" fill="#153D8A"/>
<path d="M105.328 88.1645C105.711 87.2317 106.28 86.3869 107.001 85.6815C107.743 84.9571 108.62 84.3857 109.582 83.9999C110.643 83.5763 111.778 83.3648 112.921 83.3774C114.068 83.3648 115.207 83.5763 116.274 83.9999C116.773 84.2071 117.252 84.461 117.704 84.7584C118.108 85.027 118.487 85.3337 118.833 85.6743C119.552 86.3826 120.123 87.2265 120.513 88.1573C120.915 89.118 121.119 90.1499 121.114 91.1913V98.4901H117.704V97.6242C117.239 97.9249 116.745 98.1789 116.231 98.3827C115.157 98.7989 114.014 99.0054 112.863 98.991C111.73 99.0034 110.605 98.7919 109.553 98.3684C108.594 97.987 107.72 97.4205 106.979 96.7012C106.285 95.9929 105.738 95.1538 105.371 94.2325C104.968 93.272 104.764 92.24 104.77 91.1985C104.762 90.1575 104.964 89.1257 105.363 88.1645M117.418 93.3022C117.565 92.9187 117.67 92.5205 117.732 92.1144C117.773 91.818 117.792 91.5191 117.789 91.2199C117.792 90.9255 117.773 90.6314 117.732 90.3398C117.67 89.9383 117.565 89.5448 117.418 89.1663C117.182 88.5659 116.832 88.0168 116.388 87.5491C115.947 87.0955 115.42 86.7353 114.837 86.4901C114.235 86.2442 113.591 86.1202 112.942 86.1251C112.295 86.1194 111.653 86.2435 111.054 86.4901C110.472 86.733 109.947 87.0935 109.51 87.5491C109.057 88.0111 108.704 88.5616 108.473 89.1663C108.218 89.8204 108.092 90.5178 108.102 91.2199C108.093 91.929 108.219 92.6333 108.473 93.2951C108.709 93.8996 109.061 94.4516 109.51 94.9194C109.962 95.3659 110.5 95.7164 111.09 95.9498C111.689 96.1979 112.33 96.3244 112.978 96.3219C113.628 96.3279 114.273 96.2013 114.872 95.9498C115.455 95.7088 115.982 95.348 116.417 94.8908C116.85 94.4316 117.191 93.8919 117.418 93.3022Z" fill="#153D8A"/>
<path d="M124.975 92.5223V88.5438C124.987 87.3529 125.411 86.203 126.175 85.2898C126.939 84.3766 127.995 83.7564 129.164 83.5348C129.471 83.4776 129.782 83.4488 130.094 83.449H131.752V86.1109H130.823C130.178 86.1109 129.559 86.367 129.102 86.823C128.645 87.2791 128.387 87.8979 128.385 88.5438V98.5617H124.975V92.5223Z" fill="#153D8A"/>
<path d="M140.439 83.9999C141.503 83.5758 142.64 83.3643 143.785 83.3774C144.93 83.3649 146.067 83.5763 147.131 83.9999C148.089 84.3864 148.961 84.9578 149.698 85.6815C150.417 86.3898 150.988 87.2337 151.378 88.1645C151.608 88.7085 151.774 89.2777 151.871 89.8604C151.943 90.3029 151.979 90.7503 151.979 91.1985C151.979 91.642 151.943 92.0847 151.871 92.5223H139.102C139.162 92.7657 139.239 93.0048 139.331 93.2379C139.574 93.8554 139.939 94.4176 140.403 94.8908C140.843 95.3466 141.371 95.7071 141.955 95.9499C142.553 96.1974 143.195 96.3238 143.842 96.3219C144.495 96.3273 145.142 96.2007 145.744 95.9499C146.117 95.7936 146.468 95.5892 146.788 95.3416C146.951 95.2129 147.106 95.0743 147.253 94.9266H151.099C150.741 95.5877 150.286 96.1908 149.748 96.7155C149.476 96.9789 149.182 97.2183 148.869 97.4311C148.335 97.8086 147.759 98.1232 147.153 98.3685C146.077 98.7842 144.931 98.9906 143.778 98.9767C142.644 98.9892 141.52 98.7776 140.468 98.3541C139.51 97.9711 138.635 97.4048 137.894 96.6869C137.176 95.9823 136.607 95.1403 136.221 94.211C135.993 93.6613 135.827 93.0876 135.728 92.5008C135.656 92.0632 135.62 91.6205 135.62 91.177C135.62 90.7289 135.656 90.2814 135.728 89.8389C135.823 89.2565 135.986 88.6873 136.214 88.1431C136.6 87.2117 137.169 86.3673 137.887 85.6601C138.623 84.948 139.49 84.3844 140.439 83.9999ZM139.102 89.8533H148.504C148.445 89.6096 148.368 89.3705 148.275 89.1377C148.039 88.5373 147.69 87.9882 147.246 87.5205C146.805 87.0669 146.277 86.7067 145.694 86.4615C145.093 86.2157 144.449 86.0916 143.799 86.0965C143.152 86.0916 142.511 86.2157 141.912 86.4615C141.343 86.7086 140.829 87.0689 140.403 87.5205C139.953 87.9844 139.6 88.5344 139.367 89.1377C139.274 89.3705 139.197 89.6096 139.138 89.8533" fill="#153D8A"/>
<path d="M26.1674 114.683C26.4277 114.926 26.7633 115.073 27.1183 115.098H27.2041C27.6317 115.099 28.0443 114.941 28.3623 114.655C28.5254 114.522 28.6574 114.356 28.7488 114.166C28.8403 113.977 28.8889 113.77 28.8914 113.56C28.8982 113.472 28.8982 113.383 28.8914 113.295C28.8759 113.203 28.8544 113.112 28.827 113.023L28.7627 112.852C28.7384 112.794 28.7097 112.739 28.6769 112.687C28.549 112.489 28.3647 112.335 28.1478 112.243C27.8968 112.131 27.6389 112.036 27.3757 111.957L27.1397 111.885C27.0611 111.885 26.9896 111.843 26.9109 111.821C26.4392 111.659 25.999 111.417 25.6097 111.106C25.3904 110.893 25.2229 110.632 25.12 110.345C25.0171 110.057 24.9816 109.749 25.0163 109.445C25.0012 109.165 25.0592 108.886 25.1846 108.635C25.3099 108.384 25.4983 108.17 25.7313 108.014C26.1892 107.691 26.7365 107.518 27.297 107.521C27.7795 107.51 28.2503 107.669 28.6268 107.971C28.9681 108.228 29.2407 108.564 29.4205 108.952C29.4625 109.054 29.496 109.159 29.5205 109.267C29.5483 109.367 29.5627 109.47 29.5634 109.574V109.674H28.777C28.709 109.284 28.5217 108.924 28.2408 108.644C28.0189 108.425 27.7381 108.276 27.4329 108.215H27.3042H27.1755C26.8371 108.216 26.5103 108.338 26.2532 108.558C26.1183 108.664 26.0086 108.798 25.9319 108.952C25.8553 109.105 25.8136 109.274 25.8099 109.445C25.7825 109.664 25.8161 109.886 25.907 110.087C25.9978 110.288 26.1424 110.459 26.3247 110.583C26.6678 110.835 27.0429 111.039 27.44 111.191L27.6116 111.241L27.7903 111.292C28.2126 111.417 28.6164 111.597 28.9915 111.828C29.196 111.968 29.3699 112.148 29.5026 112.357C29.6354 112.566 29.7242 112.8 29.7636 113.045C29.7601 113.071 29.7601 113.097 29.7636 113.123C29.7636 113.123 29.7636 113.166 29.7636 113.195C29.7636 113.195 29.7636 113.288 29.7636 113.331C29.7669 113.369 29.7669 113.407 29.7636 113.445C29.7707 113.538 29.7707 113.632 29.7636 113.724C29.7533 113.823 29.7366 113.921 29.7136 114.018C29.5607 114.521 29.2741 114.974 28.8842 115.327C28.4627 115.732 27.9025 115.96 27.3185 115.964C26.6761 115.97 26.0552 115.733 25.5811 115.299C25.0634 114.823 24.7463 114.168 24.6946 113.467H25.5668C25.6094 113.919 25.8093 114.342 26.1316 114.662" fill="#31B7BC"/>
<path d="M40.9741 107.635H45.507V108.401H41.7534V111.299H45.4212V112.072H41.7534V115.041H45.507V115.821H40.9741V107.635Z" fill="#31B7BC"/>
<path d="M57.261 107.614H59.2772C60.6142 107.614 61.5436 107.878 62.0584 108.393C62.536 108.829 62.8215 109.436 62.852 110.082V110.318C62.837 110.996 62.5572 111.641 62.0727 112.114C61.5754 112.506 60.9525 112.702 60.321 112.665L62.6804 115.8H61.7081L58.9054 112.05C59.7209 112.108 60.5395 111.994 61.3077 111.714C61.548 111.574 61.746 111.372 61.8807 111.129C62.0154 110.886 62.0818 110.611 62.0727 110.333V110.082C62.0871 109.802 62.0189 109.524 61.8765 109.282C61.7341 109.04 61.5239 108.846 61.2719 108.723C60.7075 108.437 60.0813 108.294 59.4488 108.308H58.0189V115.8H57.2324L57.261 107.614Z" fill="#31B7BC"/>
<path d="M73.469 107.635H74.3412L77.2154 114.776L80.1896 107.635H81.0547L77.6515 115.821H76.8722L73.469 107.635Z" fill="#31B7BC"/>
<path d="M93.0302 107.635H92.158V115.828H93.0302V107.635Z" fill="#31B7BC"/>
<path d="M104.655 111.127C104.817 110.075 105.368 109.122 106.2 108.458C106.939 107.849 107.859 107.502 108.816 107.47H109.074H109.224C109.914 107.523 110.581 107.741 111.169 108.107C111.823 108.511 112.351 109.091 112.691 109.782H111.719C111.464 109.295 111.068 108.896 110.582 108.637C110.142 108.399 109.653 108.264 109.152 108.243H108.831C107.989 108.313 107.194 108.66 106.571 109.231C106.233 109.532 105.966 109.904 105.789 110.321C105.612 110.738 105.53 111.19 105.549 111.642C105.517 112.131 105.593 112.621 105.771 113.077C105.949 113.533 106.225 113.945 106.579 114.283C107.18 114.796 107.934 115.095 108.723 115.134H108.945H109.067C109.622 115.101 110.166 114.96 110.668 114.719C111.131 114.515 111.527 114.185 111.812 113.767H112.777C112.413 114.395 111.896 114.922 111.276 115.299C110.706 115.636 110.069 115.843 109.41 115.907H109.181H108.945C107.848 115.907 106.788 115.508 105.964 114.784C105.517 114.408 105.163 113.934 104.929 113.399C104.695 112.864 104.586 112.283 104.612 111.699C104.609 111.652 104.609 111.604 104.612 111.556C104.608 111.509 104.608 111.461 104.612 111.413C104.616 111.366 104.616 111.318 104.612 111.27C104.616 111.225 104.616 111.179 104.612 111.134L104.655 111.127Z" fill="#31B7BC"/>
<path d="M124.188 107.635H128.721V108.401H124.975V111.299H128.635V112.072H124.975V115.041H128.721V115.821H124.188V107.635Z" fill="#31B7BC"/>
<path d="M53.4717 55.5778C48.3525 49.9716 45.5162 42.6501 45.5214 35.0554C45.5346 26.9712 48.7507 19.2221 54.4643 13.5077C60.1779 7.79331 67.9226 4.57997 76 4.5724C84.0762 4.58187 91.8191 7.79604 97.5312 13.5103C103.243 19.2245 106.458 26.9724 106.472 35.0554C106.477 42.3781 103.841 49.4568 99.0503 54.991C100.595 55.4466 102.111 55.9938 103.59 56.6297C108.414 50.4752 111.033 42.8775 111.026 35.0554C111.026 25.7562 107.335 16.8379 100.765 10.2624C94.195 3.68688 85.2842 -0.00720215 75.9929 -0.00720215C66.7045 0.00226936 57.7992 3.6994 51.2313 10.2729C44.6634 16.8463 40.9694 25.7591 40.96 35.0554C40.9541 43.235 43.8185 51.1568 49.0533 57.4382C50.4766 56.7117 51.9509 56.0899 53.4646 55.5778" fill="#153D8A"/>
<path d="M91.9221 44.465C91.2572 44.0786 90.6137 43.685 89.9988 43.3058C88.7636 42.5009 87.4735 41.7836 86.1381 41.1591C83.507 40.0285 80.7544 39.0124 78.0877 38.0822L76.2931 37.431C73.3475 36.3648 70.502 35.2843 68.0568 33.3595C67.0471 32.5865 66.1454 31.6816 65.3757 30.6689L57.9187 48.2217H65.5687L68.686 40.5723H83.1138L86.231 48.2217H94.0956L92.6656 44.9087L91.9221 44.465Z" fill="#153D8A"/>
<path d="M71.7674 27.6923L72.9256 28.1717L75.9213 20.8515L80.0323 30.8694C83.194 32.0033 86.148 33.6496 88.7762 35.7424C89.2797 36.1716 89.7571 36.6304 90.2061 37.1163L79.4818 11.814H72.561L67.2417 24.322C68.428 25.8241 69.989 26.9866 71.7674 27.6923Z" fill="#153D8A"/>
<path d="M92.344 42.7692C90.4489 41.5462 88.4869 40.4306 86.467 39.4275C83.2354 37.9964 79.8966 36.8801 76.5792 35.6779C73.7622 34.6547 70.9667 33.5813 68.5645 31.728C65.3972 29.2808 63.4025 25.7817 64.6108 21.7745C64.6751 21.8175 64.7681 21.8532 64.7752 21.9033C65.576 25.6672 68.0283 28.0429 71.4172 29.4955C74.0625 30.6332 76.7937 31.5849 79.489 32.6153C82.6398 33.7362 85.5862 35.3654 88.2115 37.4382C89.9622 38.8894 91.3709 40.7097 92.3368 42.7692" fill="#31B7BC"/>
<path d="M102.139 61.1019C101.088 60.4508 100.094 59.7853 99.0501 59.2057C96.0115 57.5384 92.8586 57.6887 89.7557 58.991C87.0531 60.1431 84.4364 61.5098 81.8125 62.8479C77.9088 64.8443 73.998 66.8264 69.6582 67.7781C65.1468 68.7799 60.8213 68.4937 56.932 65.7102C54.2769 63.7612 52.3312 60.9971 51.391 57.839C51.3833 57.7342 51.3833 57.6289 51.391 57.5241C52.3491 58.2397 53.2428 58.9552 54.1508 59.6279C55.8221 60.9605 57.7496 61.9348 59.8132 62.4901C62.4162 63.0851 65.1397 62.855 67.6063 61.8318C71.0452 60.4794 74.4055 58.9266 77.7801 57.4096C80.9315 55.86 84.2488 54.6741 87.668 53.8747C91.1427 53.1592 94.5316 53.245 97.6774 55.2272C99.7174 56.5456 101.264 58.5033 102.074 60.7942C102.104 60.909 102.12 61.0265 102.124 61.1449" fill="#153D8A"/>
<path d="M77.6873 54.1681C76.3174 54.4686 74.9642 54.8413 73.6335 55.2844C71.603 56.093 69.6298 57.059 67.6422 57.9892C65.9943 58.8558 64.2213 59.4594 62.3872 59.7782C59.9206 60.093 57.5112 59.4347 56.2815 57.1449C56.3244 57.1449 56.3816 57.1449 56.4102 57.1449C57.3302 57.7409 58.3871 58.0919 59.4807 58.1646C60.5743 58.2372 61.6682 58.0291 62.6589 57.5599C64.3248 56.8944 65.9406 56.1288 67.5778 55.4132C69.4557 54.5183 71.4677 53.9381 73.5334 53.6959C74.9396 53.5635 76.3576 53.7418 77.6873 54.2182" fill="#A1DAF8"/>
<path d="M100.737 64.7513C98.1708 62.8479 95.4682 63.3201 92.8086 64.1216C90.1489 64.923 87.6037 66.0536 84.944 66.8836C83.1853 67.4418 81.3693 67.7352 79.539 68.143C79.4082 68.1551 79.2766 68.1551 79.1458 68.143C79.3531 68.0071 79.446 67.9284 79.5533 67.8711C82.5275 66.3327 85.4803 64.7727 88.4688 63.2844C90.7056 62.0931 93.2063 61.4853 95.7399 61.5169C97.5488 61.567 99.1932 62.0751 100.23 63.7352C100.416 64.0753 100.581 64.4266 100.723 64.787" fill="#31B7BC"/>
</g>
<defs>
<clipPath id="clip0_50_5">
<rect width="152" height="116" fill="white"/>
</clipPath>
</defs>
</svg>
